<svg width="28" height="28" viewBox="0 0 28 28" fill="none" xmlns="http://www.w3.org/2000/svg">
<g id="logotype 2" clip-path="url(#clip0_1_355)">
<g id="Group">
<path id="Vector" d="M14 0C21.7324 0 28 6.2685 28 14C28 21.7325 21.7324 28 14 28C6.26753 28 0 21.7324 0 14C0 6.2685 6.26763 0 14 0Z" fill="#C8232C"/>
<path id="Vector_2" d="M14.424 6.13025C9.49069 6.13025 7.00488 9.555 7.00488 12.4101C7.00488 14.1391 7.68038 15.6773 9.13113 16.2504C9.36824 16.344 9.58268 16.2539 9.65092 15.9993L9.86266 15.1916C9.93263 14.9405 9.90552 14.8513 9.71387 14.6317C9.29472 14.1548 9.02877 13.5362 9.02877 12.6603C9.02877 10.1202 10.9914 7.84599 14.1397 7.84599C16.9283 7.84599 18.4595 9.49541 18.4595 11.6978C18.4595 14.5958 17.1348 17.0423 15.1678 17.0423C14.0828 17.0423 13.2691 16.1734 13.5298 15.105C13.8413 13.8328 14.4468 12.4581 14.4468 11.5385C14.4468 10.7169 13.991 10.0291 13.046 10.0291C11.9356 10.0291 11.044 11.1413 11.044 12.6313C11.044 13.5808 11.3756 14.2221 11.3756 14.2221L10.0395 19.7005C9.64313 21.3254 9.98088 23.3186 10.0088 23.5199C10.0263 23.6388 10.1839 23.6668 10.2556 23.5776C10.3579 23.4482 11.6801 21.867 12.1298 20.2868C12.2575 19.8396 12.8605 17.5235 12.8605 17.5235C13.221 18.1911 14.2754 18.7774 15.3963 18.7774C18.7326 18.7774 20.9971 15.8313 20.9971 11.8885C20.9961 8.90748 18.3886 6.13025 14.424 6.13025Z" fill="white"/>
</g>
</g>
<defs>
<clipPath id="clip0_1_355">
<rect width="28" height="28" fill="white"/>
</clipPath>
</defs>
</svg>
